<svg xmlns="http://www.w3.org/2000/svg" version="1.1" xmlns:xlink="http://www.w3.org/1999/xlink" xmlns:svgjs="http://svgjs.dev/svgjs" width="1000" height="1000" viewBox="0 0 1000 1000"><rect width="1000" height="1000" fill="#ffffff"></rect><g transform="matrix(0.7,0,0,0.7,149.57575757575756,380.7696026207701)"><svg viewBox="0 0 396 135" data-background-color="#ffffff" preserveAspectRatio="xMidYMid meet" height="340" width="1000" xmlns="http://www.w3.org/2000/svg" xmlns:xlink="http://www.w3.org/1999/xlink"><g id="tight-bounds" transform="matrix(1,0,0,1,0.2400000000000091,0.13068758905899358)"><svg viewBox="0 0 395.52 134.73862482188204" height="134.73862482188204" width="395.52"><g><svg viewBox="0 0 667.0700834214102 227.24541287423884" height="134.73862482188204" width="395.52"><g transform="matrix(1,0,0,1,0,66.70490184540807)"><svg viewBox="0 0 395.52 93.83560918342269" height="93.83560918342269" width="395.52"><g><svg viewBox="0 0 395.52 93.83560918342269" height="93.83560918342269" width="395.52"><g><svg viewBox="0 0 395.52 93.83560918342269" height="93.83560918342269" width="395.52"><g transform="matrix(1,0,0,1,0,0)"><svg width="395.52" viewBox="2.829648971557617 -33.75032424926758 141.350341796875 34.210323333740234" height="93.83560918342269" data-palette-color="#6b7280"><g class="undefined-text-0" data-fill-palette-color="primary" id="text-0"><path d="M18.81-30.28L18.81-30.28Q13.32-30.28 10.15-26.62 6.98-22.95 6.98-16.52 6.98-10.09 10.04-6.53 13.09-2.98 18.76-2.98L18.76-2.98Q22.3-2.98 26.72-4.22L26.72-4.22 26.72-0.83Q23.26 0.46 18.17 0.46L18.17 0.46Q10.82 0.46 6.83-3.99L6.83-3.99Q2.83-8.49 2.83-16.68L2.83-16.68Q2.81-20.48 3.93-23.67 5.06-26.87 7.13-29.1 9.2-31.32 12.21-32.55 15.22-33.77 18.86-33.75L18.86-33.75Q24.14-33.75 28.01-31.83L28.01-31.83 26.37-28.51Q22.65-30.28 18.81-30.28ZM42.69-24.37L38.77-14.05 49.52-14.05 45.65-24.37Q44.87-26.49 44.11-29.17L44.11-29.17Q43.65-27.1 42.69-24.37L42.69-24.37ZM45.8-33.39L58.87 0 54.88 0 50.73-10.57 37.41-10.57 33.31 0 29.4 0 42.54-33.39 45.8-33.39ZM81.09-14.21L67.31-14.21 67.31 0 63.44 0 63.44-33.27 81.97-33.27 81.97-29.83 67.31-29.83 67.31-17.64 81.09-17.64 81.09-14.21ZM91.35-3.46L106.01-3.46 106.01 0 87.48 0 87.48-33.27 106.01-33.27 106.01-29.83 91.35-29.83 91.35-19.11 105.12-19.11 105.12-15.7 91.35-15.7 91.35-3.46Z" fill="#000000" data-fill-palette-color="primary"></path><path d="M126.03-3.51L144.18-3.51 144.18 0 121.33 0 121.33-3.03 138.97-29.78 121.86-29.78 121.86-33.27 143.67-33.27 143.67-30.23 126.03-3.51Z" fill="#000000" data-fill-palette-color="secondary"></path></g></svg></g></svg></g></svg></g></svg></g><g transform="matrix(1,0,0,1,439.82467054717137,0)"><svg viewBox="0 0 227.24541287423884 227.24541287423884" height="227.24541287423884" width="227.24541287423884"><g><svg></svg></g><g id="icon-0"><svg viewBox="0 0 227.24541287423884 227.24541287423884" height="227.24541287423884" width="227.24541287423884"><g><path d="M0 113.623c0-62.752 50.871-113.623 113.623-113.623 62.752 0 113.623 50.871 113.622 113.623 0 62.752-50.871 113.623-113.622 113.622-62.752 0-113.623-50.871-113.623-113.622zM113.623 218.783c58.079 0 105.161-47.082 105.16-105.16 0-58.079-47.082-105.161-105.16-105.161-58.079 0-105.161 47.082-105.161 105.161 0 58.079 47.082 105.161 105.161 105.16z" data-fill-palette-color="accent" fill="#000000" stroke="transparent"></path></g><g transform="matrix(1,0,0,1,47.948443658414064,56.67728264175534)"><svg viewBox="0 0 131.3485255574107 113.89084759072816" height="113.89084759072816" width="131.3485255574107"><g><svg xmlns="http://www.w3.org/2000/svg" xmlns:xlink="http://www.w3.org/1999/xlink" version="1.0" x="0" y="0" viewBox="9.35999870300293 14.761998176574707 81.28001403808594 70.47699737548828" enable-background="new 0 0 100 100" xml:space="preserve" height="113.89084759072816" width="131.3485255574107" class="icon-s-0" data-fill-palette-color="accent" id="s-0"><g fill="#97978d" data-fill-palette-color="accent"><path fill="#000000" d="M86.083 70.502c0 3.732-4.159 6.881-12.026 9.109-7.026 1.99-16.334 3.086-26.208 3.086s-19.182-1.096-26.208-3.086c-7.631-2.162-11.773-5.189-12.015-8.773-0.173 0.494-0.266 0.998-0.266 1.508 0 7.119 17.403 12.893 38.87 12.893 21.468 0 38.87-5.773 38.87-12.893 0-1.105-0.42-2.178-1.207-3.201C86.019 69.588 86.083 70.041 86.083 70.502z" data-fill-palette-color="accent"></path><path fill="#000000" d="M47.848 80.791c20.064 0 36.33-4.605 36.33-10.289 0-3.166-5.057-6-13.007-7.887-1.27 2.311-2.669 4.531-4.196 6.617-0.779 1.57-3.035 2.752-6.879 3.605-3.443 0.766-7.889 1.188-12.52 1.188-7.034 0-15.701-1.012-18.635-3.791h-0.078l-0.333-0.449c-0.036-0.045-0.07-0.092-0.103-0.139l-0.072-0.096c-1.621-2.186-3.082-4.457-4.383-6.803-7.63 1.887-12.452 4.662-12.452 7.754C11.519 76.186 27.784 80.791 47.848 80.791z" data-fill-palette-color="accent"></path><path fill="#000000" d="M76.648 26.47c-0.191-1.724-0.445-3.43-0.781-5.106h-0.044c-0.585-3.67-13.005-6.602-28.247-6.602-15.243 0-27.663 2.932-28.247 6.602h-0.097c-0.764 3.811-1.167 7.756-1.167 11.794 0 11.934 3.504 23.036 9.524 32.317 0.012 0.018 0.023 0.037 0.036 0.055 0.309 0.475 0.625 0.945 0.946 1.41 0.056 0.08 0.112 0.16 0.168 0.242 0.32 0.457 0.644 0.91 0.976 1.357h0.014c1.181 2.141 8.718 3.791 17.846 3.791 9.367 0 17.062-1.738 17.928-3.959 0.326-0.441 0.643-0.889 0.955-1.34 0.072-0.105 0.144-0.209 0.215-0.314 0.298-0.434 0.59-0.873 0.877-1.316 0.008-0.014 0.018-0.027 0.027-0.043 0.32-0.498 0.634-1.004 0.939-1.514 0.017-0.025 0.032-0.053 0.049-0.08 0.301-0.502 0.596-1.01 0.883-1.523 0.002-0.002 0.004-0.006 0.006-0.01h-0.001c0.474-0.844 0.929-1.701 1.361-2.57 8.308-0.582 19.519-10.208 19.811-25.474l0.015-0.703C90.641 27.041 83.54 26.521 76.648 26.47zM47.576 26.008c-13.414 0-24.288-1.958-24.288-4.375 0-2.416 10.874-4.375 24.288-4.375 13.413 0 24.287 1.959 24.287 4.375C71.863 24.05 60.989 26.008 47.576 26.008zM84.787 34.069c-0.172 8.976-5.028 15.451-10.021 18.283 2.068-6.172 3.116-12.618 3.116-19.194 0-0.271-0.006-0.542-0.015-0.812 6.731 0.186 6.934 0.989 6.934 1.068L84.787 34.069z" data-fill-palette-color="accent"></path></g></svg></g></svg></g></svg></g></svg></g></svg></g><defs></defs></svg><rect width="395.52" height="134.73862482188204" fill="none" stroke="none" visibility="hidden"></rect></g></svg></g></svg>